{"title":"The Conjuring HDRip.mp4","uid":9003957,"size":365785253,"categoryP":"video","categoryS":"movies","magnet":"?xt=urn:btih:e8ea5e3f3fccc4dfce12558dba9a98697780456f&amp;dn=The+Conjuring+HDRip.mp4&amp;tr=udp%3A%2F%2Ftracker.openbittorrent.com%3A80&amp;tr=udp%3A%2F%2Fopen.demonii.com%3A1337&amp;tr=udp%3A%2F%2Ftracker.coppersurfer.tk%3A6969&amp;tr=udp%3A%2F%2Fexodus.desync.com%3A6969","seeders":1,"leechers":0,"uploader":"globeplus","files":-1,"time":1380998631,"description":"The Conjuring HDRip.mp4\n\nFormat                                   : MPEG-4\nCodec ID                                 : M4V \nFile size                                : 349 MiB\nDuration                                 : 2h 0mn\nOverall bit rate mode                    : Variable\nOverall bit rate                         : 406 Kbps\n\n\nVideo\n\nID                                       : 1\nFormat                                   : AVC\nFormat/Info                              : Advanced Video Codec\nFormat profile                           : &lt;a class=&quot;__cf_email__&quot; href=&quot;/cdn-cgi/l/email-protection&quot; data-cfemail=&quot;c78faea0af878bf4e9f7&quot;&gt;[email&amp;#160;protected]&lt;/a&gt;&lt;script cf-hash='f9e31' type=&quot;text/javascript&quot;&gt;\n/* &lt;![CDATA[ */!function(){try{var t=&quot;currentScript&quot;in document?document.currentScript:function(){for(var t=document.getElementsByTagName(&quot;script&quot;),e=t.length;e--;)if(t[e].getAttribute(&quot;cf-hash&quot;))return t[e]}();if(t&amp;&amp;t.previousSibling){var e,r,n,i,c=t.previousSibling,a=c.getAttribute(&quot;data-cfemail&quot;);if(a){for(e=&quot;&quot;,r=parseInt(a.substr(0,2),16),n=2;a.length-n;n+=2)i=parseInt(a.substr(n,2),16)^r,e+=String.fromCharCode(i);e=document.createTextNode(e),c.parentNode.replaceChild(e,c)}}}catch(u){}}();/* ]]&gt; */&lt;/script&gt;\nFormat settings, CABAC                   : Yes\nFormat settings, ReFrames                : 2 frames\nCodec ID                                 : avc1\nCodec ID/Info                            : Advanced Video Coding\nDuration                                 : 2h 0mn\nBit rate mode                            : Variable\nBit rate                                 : 359 Kbps\nMaximum bit rate                         : 5 233 Kbps\nWidth                                    : 896 pixels\nHeight                                   : 376 pixels\nDisplay aspect ratio                     : 2.40:1\nFrame rate mode                          : Constant\nFrame rate                               : 23.976 fps\nColor space                              : YUV\nChroma subsampling                       : 4:2:0\nBit depth                                : 8 bits\nScan type                                : Progressive\nBits/(Pixel*Frame)                       : 0.045\nStream size                              : 309 MiB (89%)\nWriting library                          : x264 core 120 r2151 a3f4407\nLanguage                                 : English\n\n\nAudio\n\nID                                       : 2\nFormat                                   : AAC\nFormat/Info                              : Advanced Audio Codec\nFormat profile                           : HE-AAC / LC\nCodec ID                                 : 40\nDuration                                 : 1h 52mn\nBit rate mode                            : Variable\nBit rate                                 : 48.0 Kbps\nMaximum bit rate                         : 75.5 Kbps\nChannel(s)                               : 2 channels\nChannel positions                        : Front: L R\nSampling rate                            : 48.0 KHz / 24.0 KHz\nCompression mode                         : Lossy\nStream size                              : 38.5 MiB (11%)\nLanguage                                 : English\n\n\n\nPlot\n\nIn 1971, Roger and Carolyn move into a dilapidated farmhouse in Harrisville, Rhode Island with their five daughters. During the first day, their move goes smoothly, though their dog, Sadie, refuses to enter the house and one of the daughters finds a boarded up entrance to a cellar.\n\nThe next morning, Carolyn wakes up with a mysterious bruise and finds Sadie lying dead outside the house. Over the next several days, various instances of paranormal disturbance occur, one of which is Carolyn noticing all clocks in the house stop at exactly 3:07. The activity culminates one night while Roger is away in Florida. After hearing various clapping, giggling, and seeing the picture frames shattered on the stairs, Carolyn is locked up in the cellar. Right after this, Cindy is awakened after sleepwalking into Andrea's room and is horrified when she sees a spirit at the top of a wardrobe in the room, who attacks Andrea.\n\nCarolyn contacts noted paranormal investigators Ed and Lorraine Warren for help. The Warrens conduct an initial investigation and conclude that the house may require an exorcism, but they needed authorization from the Catholic Church and further evidence before that.\n\n\n\n\n* enjoy ...","torrent":{"xt":"urn:btih:e8ea5e3f3fccc4dfce12558dba9a98697780456f","amp;dn":"The+Conjuring+HDRip.mp4","amp;tr":["udp%3A%2F%2Ftracker.openbittorrent.com%3A80","udp%3A%2F%2Fopen.demonii.com%3A1337","udp%3A%2F%2Ftracker.coppersurfer.tk%3A6969","udp%3A%2F%2Fexodus.desync.com%3A6969"],"infoHash":"e8ea5e3f3fccc4dfce12558dba9a98697780456f","infoHashBuffer":{"type":"Buffer","data":[232,234,94,63,63,204,196,223,206,18,85,141,186,154,152,105,119,128,69,111]},"announce":[],"urlList":[]}}